<svg xmlns="http://www.w3.org/2000/svg" width="40" height="45" viewBox="0 0 40 45">
  <!-- Filtro ombra per dare profondità -->
  <defs>
    <filter id="shadow" x="-20%" y="-20%" width="140%" height="140%">
      <feDropShadow dx="0" dy="2" stdDeviation="1.5" flood-color="black" flood-opacity="0.4"/>
    </filter>
  </defs>

  <!-- Corpo principale del bus (il colore è dinamico) -->
  <path d="M 2,15 
           C 2,5 10,0 20,0 
           C 30,0 38,5 38,15 
           L 38,38 
           L 32,38 
           L 32,45 
           L 28,45 
           L 28,38 
           L 12,38 
           L 12,45 
           L 8,45 
           L 8,38 
           L 2,38 Z"
        fill="{COLOR}"
        filter="url(#shadow)"/>

  <!-- "Buchi" e dettagli disegnati in bianco sopra il corpo -->
  <!-- Slot superiore per numero linea (estetico) -->
  <rect x="7" y="5" width="26" height="6" rx="3" fill="#000000"/>
  <!-- Parabrezza -->
  <rect x="7" y="14" width="26" height="15" rx="3" fill="#000000"/>
  <!-- Fari -->
  <circle cx="12" cy="33" r="4" fill="#000000"/>
  <circle cx="28" cy="33" r="4" fill="#000000"/>
  
  <!-- Testo per la linea (dinamico, sia il numero che il colore) -->
  <text x="20"
        y="22"
        font-family="Arial, sans-serif"
        font-size="12px"
        font-weight="bold"
        fill="{COLOR}"
        text-anchor="middle"
        dominant-baseline="middle">
    {LINEA}
  </text>
  
  <!-- Hitbox invisibile per garantire la cattura del click su tutta l'area -->
  <rect x="0" y="0" width="40" height="45" fill="none" pointer-events="all" />
</svg>
